<svg width="435" height="40" viewBox="0 0 435 40" fill="none" xmlns="http://www.w3.org/2000/svg">
<path d="M349.985 4.28577H299.385V8.80682H349.985V4.28577Z" fill="#EDEDED"/>
<path d="M323.105 13.7964L320.473 26.2341H317.29L319.922 13.7964H323.105ZM336.495 21.8276L338.17 17.1571L339.134 21.8276H336.495ZM340.048 26.2341H342.991L340.42 13.7964H337.705C337.092 13.7964 336.577 14.1554 336.349 14.7085L331.573 26.2341H334.915L335.579 24.3768H339.662L340.048 26.2341ZM331.739 22.1736C331.753 18.8914 327.25 18.7094 327.28 17.243C327.29 16.7971 327.71 16.3221 328.63 16.2009C329.086 16.1415 330.343 16.0936 331.769 16.7576L332.327 14.1189C331.561 13.8391 330.575 13.5695 329.349 13.5695C326.203 13.5695 323.99 15.2591 323.972 17.6805C323.951 19.4712 325.553 20.4697 326.757 21.0657C327.998 21.675 328.414 22.0668 328.408 22.6111C328.4 23.4456 327.418 23.8151 326.505 23.8291C324.903 23.8544 323.975 23.3916 323.236 23.0429L322.658 25.7693C323.403 26.1141 324.776 26.4139 326.196 26.4294C329.541 26.4294 331.729 24.7596 331.739 22.1736ZM318.557 13.7964L313.4 26.2341H310.036L307.497 16.3081C307.344 15.6976 307.21 15.4733 306.742 15.2154C305.976 14.7951 304.713 14.4023 303.602 14.1579L303.677 13.7964H309.093C309.783 13.7964 310.403 14.2609 310.561 15.064L311.902 22.2619L315.213 13.7964H318.557Z" fill="#EDEDED"/>
<path d="M349.985 31.1931H299.385V35.7146H349.985V31.1931Z" fill="#EDEDED"/>
<rect x="297.277" y="2.13137" width="54.817" height="35.7373" stroke="#EDEDED" stroke-width="1.40556"/>
<path fill-rule="evenodd" clip-rule="evenodd" d="M396.803 35.7143C400.372 35.7143 403.667 34.5513 406.32 32.5878C402.954 29.4234 400.856 24.9541 400.856 20.0003C400.856 15.046 402.954 10.5767 406.32 7.41267C403.667 5.44882 400.372 4.28577 396.803 4.28577C388.024 4.28577 380.908 11.3214 380.908 20.0003C380.908 28.6787 388.024 35.7143 396.803 35.7143ZM418.424 4.28577C414.855 4.28577 411.561 5.44882 408.908 7.41267C412.273 10.5767 414.371 15.046 414.371 20.0003C414.371 24.9541 412.273 29.4234 408.908 32.5878C411.561 34.5513 414.855 35.7143 418.424 35.7143C427.203 35.7143 434.319 28.6787 434.319 20.0003C434.319 11.3214 427.203 4.28577 418.424 4.28577ZM412.698 20.0003C412.698 15.449 410.741 11.3497 407.614 8.48001C404.486 11.3497 402.529 15.449 402.529 20.0003C402.529 24.5511 404.486 28.6504 407.614 31.5201C410.741 28.6504 412.698 24.5511 412.698 20.0003Z" fill="#EDEDED"/>
<rect y="1.42859" width="56.2225" height="37.1429" rx="2.81113" fill="#EDEDED"/>
<path d="M49.1951 20.9657V19.0127H46.0904V15.7144H43.8664V19.0127H40.7617V20.9657H43.8664V24.2858H46.0904V20.9657H49.1951Z" fill="#00003D"/>
<path d="M16.9191 10.0001C18.0234 10.0001 19.0405 10.1267 19.9704 10.38C20.9003 10.6152 21.7043 10.977 22.3824 11.4655C23.0605 11.9358 23.5836 12.5148 23.9517 13.2022C24.3391 13.8897 24.5329 14.6676 24.5329 15.536C24.5329 16.5672 24.3004 17.5532 23.8354 18.494C23.3898 19.4347 22.7311 20.3483 21.8593 21.2348C21.0069 22.1213 19.9607 22.9897 18.7208 23.84C17.481 24.6722 16.0861 25.5044 14.5362 26.3366H24.62V30.0001H8.43359V26.3366C9.84785 25.3777 11.233 24.446 12.5892 23.5414C13.9453 22.6188 15.1465 21.7233 16.1926 20.8549C17.2582 19.9684 18.1106 19.1091 18.7499 18.2769C19.3892 17.4447 19.7089 16.6215 19.7089 15.8074C19.7089 14.9571 19.4183 14.3329 18.8371 13.9349C18.2559 13.5188 17.5681 13.3108 16.7738 13.3108C16.3476 13.3108 15.9214 13.3831 15.4952 13.5279C15.0883 13.6545 14.7202 13.8716 14.3909 14.1792C14.0809 14.4867 13.8291 14.9119 13.6353 15.4546C13.4416 15.9793 13.3641 16.6305 13.4029 17.4085H8.66607C8.62733 16.2506 8.80169 15.2104 9.18915 14.2877C9.596 13.3651 10.1675 12.5871 10.9037 11.9539C11.6399 11.3207 12.5214 10.8413 13.5482 10.5157C14.5749 10.1719 15.6986 10.0001 16.9191 10.0001Z" fill="#00003D"/>
<path d="M31.779 30.0001V16.7843H26.9841V13.5007C27.8559 13.4826 28.6115 13.4103 29.2508 13.2836C29.9095 13.1389 30.4713 12.9399 30.9363 12.6866C31.4012 12.4334 31.7887 12.1168 32.0987 11.7368C32.4087 11.3388 32.6799 10.8684 32.9124 10.3257H36.5449V30.0001H31.779Z" fill="#00003D"/>
<path fill-rule="evenodd" clip-rule="evenodd" d="M103.275 0C103.31 0.350689 103.326 0.703168 103.321 1.05568C103.206 2.866 102.447 4.57456 101.183 5.86935C100.605 6.47801 99.9656 7.01196 99.1784 7.32582C98.5051 7.59639 97.8009 7.64872 97.0914 7.70147L97.0822 7.70215L97.0799 7.70199C97.0778 7.70167 97.0756 7.70093 97.0735 7.69994C97.0713 7.69901 97.0692 7.69783 97.067 7.69652L97.0598 7.69163C97.0559 7.68897 97.0521 7.68635 97.0484 7.6845C97.1498 3.52569 99.2366 0.83556 103.275 0ZM109.541 10.3106L109.287 10.5435C109.049 10.7614 108.811 10.9794 108.576 11.2018C107.453 12.2697 106.609 13.5115 106.311 15.0604C106.097 16.0777 106.104 17.1294 106.332 18.1436C106.56 19.1578 107.004 20.1105 107.632 20.9365C108.28 21.8183 109.052 22.5506 110.08 22.9745C110.153 23.004 110.226 23.0315 110.305 23.0612C110.357 23.0808 110.411 23.1013 110.47 23.124C110.446 23.1887 110.422 23.2532 110.399 23.3176L110.347 23.4643L110.337 23.4919L110.326 23.5245C110.245 23.7528 110.165 23.9783 110.074 24.2C109.236 26.238 108.148 28.1238 106.661 29.7596C106.38 30.062 106.077 30.3427 105.754 30.5992C104.672 31.4823 103.455 31.822 102.082 31.4144C101.398 31.2133 100.722 30.9878 100.04 30.7772C99.3456 30.5414 98.6218 30.4042 97.8897 30.3696C96.9727 30.3479 96.1316 30.6237 95.2796 30.9361C94.6418 31.189 93.9898 31.4036 93.3267 31.5788C92.2813 31.8302 91.3346 31.5068 90.4691 30.9171C89.6173 30.3119 88.8838 29.5543 88.3052 28.6822C86.7977 26.5499 85.6656 24.1735 84.958 21.6566C84.3231 19.4232 84.1704 17.0793 84.5104 14.7819C84.816 12.7344 85.5761 10.8866 87.0069 9.35952C88.4946 7.77804 90.327 7.12724 92.472 7.34193C93.5404 7.44791 94.5601 7.75902 95.5825 8.05792C95.7719 8.11352 95.9633 8.16294 96.1553 8.21036L96.3036 8.24658L96.4589 8.28418C96.5303 8.30141 96.6018 8.31867 96.6731 8.33619C96.7407 8.35275 96.8081 8.36954 96.8754 8.38671C97.4795 8.52348 98.1094 8.49202 98.6971 8.29569C99.139 8.16598 99.578 8.02691 100.016 7.88812L100.019 7.88726C100.415 7.76174 100.811 7.63648 101.207 7.51854C102.437 7.13169 103.743 7.05333 105.01 7.2903C106.676 7.61365 107.993 8.51309 109.096 9.77389C109.231 9.93151 109.366 10.0918 109.501 10.2521C109.516 10.2704 109.529 10.2899 109.541 10.3106ZM125.009 4.42909C122.809 4.41697 120.611 4.58923 118.438 4.94401V31.2677H121.861V20.5969C122.648 20.7939 123.592 20.8334 124.615 20.8334C127.959 20.8334 130.909 19.8429 132.722 17.9041C134.06 16.521 134.768 14.623 134.768 12.2128C134.768 9.84464 133.903 7.90721 132.448 6.64231C130.871 5.2198 128.391 4.42909 125.009 4.42909ZM124.693 18.059C123.553 18.059 122.608 17.9856 121.861 17.7873V7.42352C122.451 7.26999 123.592 7.1518 125.087 7.1518C128.864 7.1518 131.341 8.85013 131.341 12.3676C131.341 16.0441 128.823 18.059 124.693 18.059ZM147.113 31.2652L146.843 28.8536H146.725C145.662 30.3563 143.614 31.7 140.901 31.7C137.047 31.7 135.079 28.9731 135.079 26.2056C135.079 21.5862 139.172 19.0523 146.527 19.0917V18.6964C146.527 17.1163 146.095 14.2699 142.2 14.2699C140.429 14.2699 138.581 14.8242 137.243 15.6938L136.456 13.4017C138.03 12.3732 140.312 11.7021 142.711 11.7021C148.534 11.7021 149.95 15.6938 149.95 19.5265V26.6757C149.95 28.336 150.029 29.9568 150.264 31.2611L147.113 31.2652ZM146.602 21.5033C142.826 21.4245 138.537 22.0957 138.537 25.8102C138.537 28.0629 140.032 29.1307 141.803 29.1307C144.281 29.1307 145.861 27.5493 146.402 25.9298C146.524 25.5731 146.59 25.1996 146.598 24.8225L146.602 21.5033ZM158.714 23.4408L154.545 12.1383H150.769L157.804 29.7585C157.962 30.1933 158.041 30.4691 158.041 30.6675C158.041 30.8658 157.928 31.1416 157.77 31.4976C157.113 32.9984 156.116 34.3246 154.86 35.3711C153.967 36.128 152.939 36.7067 151.83 37.0762L152.696 40C153.563 39.8424 155.253 39.25 156.944 37.7474C159.305 35.6904 160.996 32.3332 163.475 25.7723L168.668 12.1383H165.009L161.227 23.362C160.922 24.2616 160.648 25.1946 160.397 26.0525C160.262 26.5135 160.133 26.9529 160.01 27.3537H159.931C159.619 26.207 159.147 24.7058 158.714 23.4408Z" fill="white"/>
<path fill-rule="evenodd" clip-rule="evenodd" d="M201.576 9.46311C203.463 9.43251 205.286 10.1366 206.653 11.4235L210.429 7.69168C208.033 5.46917 204.861 4.24905 201.576 4.28661C199.124 4.28658 196.721 4.95988 194.633 6.23143C192.546 7.50296 190.857 9.32276 189.755 11.4879L189.755 11.49C188.828 13.3107 188.346 15.3206 188.346 17.3588C188.346 19.397 188.828 21.407 189.755 23.2277L189.755 23.2323C190.857 25.3975 192.546 27.2173 194.633 28.4888C196.721 29.7604 199.124 30.4337 201.576 30.4337V30.4292C205.147 30.4292 208.152 29.2712 210.342 27.2731L210.362 27.2729C212.859 24.997 214.298 21.6341 214.298 17.6556H214.282C214.284 16.7618 214.209 15.8695 214.057 14.9885H201.576V20.0316H208.735C208.589 20.8361 208.279 21.6029 207.825 22.2856C207.37 22.9683 206.781 23.5527 206.091 24.0034V24.0191L206.071 24.0036C204.884 24.7948 203.356 25.2549 201.576 25.2549C198.125 25.2549 195.197 22.9567 194.158 19.8606L194.149 19.8604C193.595 18.2377 193.595 16.4799 194.149 14.8572V14.8552C195.197 11.7569 198.125 9.46089 201.566 9.46089L201.576 9.46311ZM226.237 16.8463V8.90481V8.9026H231.182C231.978 8.89637 232.758 9.12297 233.423 9.55387C234.089 9.9848 234.61 10.6008 234.923 11.3242C235.235 12.0477 235.324 12.8464 235.179 13.6198C235.033 14.3932 234.659 15.1067 234.104 15.6705C233.726 16.0558 233.271 16.3593 232.768 16.5617C232.265 16.7641 231.725 16.861 231.182 16.8463H226.237ZM226.237 28.8551V19.649H231.126C233.142 19.6505 234.835 19.0044 236.206 17.7109C236.876 17.0967 237.411 16.3522 237.776 15.5242C238.142 14.6962 238.331 13.8024 238.331 12.8989C238.331 11.9954 238.142 11.1016 237.776 10.2736C237.411 9.44552 236.876 8.70108 236.206 8.0869C235.532 7.44372 234.737 6.93865 233.865 6.60069C232.993 6.26271 232.062 6.09855 231.126 6.11765H223.279V28.8551H226.237ZM241.583 25.1604C241.412 24.8283 241.324 24.4606 241.326 24.0879C241.326 23.2433 241.729 22.535 242.533 21.9631C243.338 21.3911 244.34 21.1051 245.538 21.1051C247.19 21.1036 248.476 21.4637 249.398 22.1853C249.398 22.792 249.268 23.3917 249.015 23.9447C248.763 24.4976 248.395 24.9912 247.935 25.3926C247.051 26.2649 245.854 26.7556 244.606 26.7573C243.774 26.7727 242.963 26.5043 242.309 25.9971C242.003 25.7795 241.754 25.4926 241.583 25.1604ZM250.317 14.5173C249.058 13.363 247.335 12.7858 245.147 12.7858C242.339 12.7858 240.219 13.8008 238.786 15.8308L241.394 17.4511C242.36 16.0746 243.668 15.3863 245.316 15.3863C246.371 15.3717 247.393 15.7511 248.177 16.4487C248.563 16.7637 248.872 17.1595 249.084 17.6073C249.295 18.0551 249.403 18.5438 249.4 19.0381V19.7049C248.263 19.0707 246.815 18.7536 245.058 18.7536C242.993 18.7521 241.344 19.2285 240.113 20.1827C238.881 21.137 238.265 22.4172 238.265 24.0235C238.252 24.7482 238.402 25.4667 238.705 26.1265C239.009 26.7864 239.457 27.3709 240.018 27.8375C241.185 28.8554 242.641 29.3622 244.376 29.3622C246.413 29.3622 248.042 28.4731 249.263 26.695H249.393V28.8554H252.212V19.2648C252.208 17.2541 251.576 15.6715 250.317 14.5173ZM268.463 13.288L258.589 35.7143H255.534L259.2 27.8685L252.704 13.288H255.921L260.616 24.4701H260.679L265.246 13.288H268.463Z" fill="white"/>
</svg>
