<svg width="189" height="56" viewBox="0 0 189 56" fill="none" xmlns="http://www.w3.org/2000/svg">
<rect x="1.37368" y="0.702782" width="186.594" height="54.436" rx="6.32504" stroke="#EDEDED" stroke-width="1.40556"/>
<path d="M181.708 55.1388H7.63386C4.194 55.1388 1.37368 52.314 1.37368 48.8614V6.9802C1.37368 3.52759 4.194 0.702782 7.63386 0.702782H181.708C185.148 0.702782 187.968 3.52759 187.968 6.9802V48.8614C187.968 52.314 185.148 55.1388 181.708 55.1388Z" stroke="#EDEDED" stroke-width="1.40556"/>
<path d="M66.7069 14.2954C66.7069 15.468 66.3588 16.4034 65.6625 17.0874C64.8826 17.9111 63.8521 18.3299 62.5988 18.3299C61.3872 18.3299 60.3706 17.9111 59.5212 17.0735C58.6717 16.2358 58.2539 15.1888 58.2539 13.9603C58.2539 12.7178 58.6717 11.6848 59.5212 10.8471C60.3706 10.0095 61.3872 9.5907 62.5988 9.5907C63.1976 9.5907 63.7686 9.70238 64.3117 9.93971C64.8548 10.177 65.2865 10.4842 65.6207 10.8751L64.8826 11.615C64.3256 10.9588 63.5736 10.6238 62.5988 10.6238C61.7215 10.6238 60.9555 10.9309 60.3149 11.5591C59.6744 12.1734 59.3541 12.9831 59.3541 13.9743C59.3541 14.9655 59.6744 15.7752 60.3149 16.3894C60.9555 17.0037 61.7215 17.3248 62.5988 17.3248C63.5318 17.3248 64.3117 17.0176 64.9384 16.3894C65.3422 15.9846 65.5789 15.4122 65.6347 14.6862H62.5988V13.6671H66.6512C66.6791 13.8905 66.7069 14.0999 66.7069 14.2954Z" fill="#EDEDED" stroke="#EDEDED" stroke-width="0.281113" stroke-miterlimit="10"/>
<path d="M73.1273 10.8064H69.3257V13.4589H72.7513V14.4641H69.3257V17.1165H73.1273V18.1496H68.2534V9.77338H73.1273V10.8064Z" fill="#EDEDED" stroke="#EDEDED" stroke-width="0.281113" stroke-miterlimit="10"/>
<path d="M77.6531 18.1496H76.5808V10.8064H74.2412V9.77338H79.9787V10.8064H77.6391V18.1496H77.6531Z" fill="#EDEDED" stroke="#EDEDED" stroke-width="0.281113" stroke-miterlimit="10"/>
<path d="M84.1426 18.1496V9.77338H85.2149V18.1496H84.1426Z" fill="#EDEDED" stroke="#EDEDED" stroke-width="0.281113" stroke-miterlimit="10"/>
<path d="M89.9773 18.1496H88.905V10.8064H86.5654V9.77338H92.3029V10.8064H89.9634V18.1496H89.9773Z" fill="#EDEDED" stroke="#EDEDED" stroke-width="0.281113" stroke-miterlimit="10"/>
<path d="M103.18 17.0596C102.358 17.9112 101.341 18.33 100.116 18.33C98.8904 18.33 97.8738 17.9112 97.0521 17.0596C96.2305 16.208 95.8267 15.1749 95.8267 13.9604C95.8267 12.7458 96.2305 11.6988 97.0521 10.8612C97.8738 10.0096 98.8904 9.59076 100.116 9.59076C101.327 9.59076 102.344 10.0096 103.18 10.8612C104.001 11.7127 104.419 12.7458 104.419 13.9604C104.405 15.1889 104.001 16.2219 103.18 17.0596ZM97.8459 16.3616C98.4587 16.9898 99.2246 17.2969 100.116 17.2969C101.007 17.2969 101.773 16.9898 102.386 16.3616C102.999 15.7333 103.319 14.9376 103.319 13.9604C103.319 12.9831 103.012 12.1874 102.386 11.5592C101.773 10.931 101.007 10.6099 100.116 10.6099C99.2246 10.6099 98.4587 10.917 97.8459 11.5452C97.2332 12.1874 96.9129 12.9831 96.9129 13.9604C96.9129 14.9376 97.2332 15.7333 97.8459 16.3616Z" fill="#EDEDED" stroke="#EDEDED" stroke-width="0.281113" stroke-miterlimit="10"/>
<path d="M105.922 18.1496V9.77338H107.231L111.298 16.2929H111.34L111.298 14.6735V9.77338H112.37V18.1496H111.256L107.009 11.323H106.967L107.009 12.9424V18.1496H105.922Z" fill="#EDEDED" stroke="#EDEDED" stroke-width="0.281113" stroke-miterlimit="10"/>
<mask id="path-10-inside-1_305_630" fill="white">
<path d="M95.5601 30.3633C92.2875 30.3633 89.6137 32.8622 89.6137 36.2964C89.6137 39.7167 92.2875 42.2296 95.5601 42.2296C98.8326 42.2296 101.506 39.7167 101.506 36.2964C101.506 32.8622 98.8326 30.3633 95.5601 30.3633ZM95.5601 39.8982C93.7636 39.8982 92.2178 38.4184 92.2178 36.2964C92.2178 34.1605 93.7636 32.6947 95.5601 32.6947C97.3565 32.6947 98.9023 34.1605 98.9023 36.2964C98.9023 38.4184 97.3426 39.8982 95.5601 39.8982ZM82.5811 30.3633C79.3085 30.3633 76.6347 32.8622 76.6347 36.2964C76.6347 39.7167 79.3085 42.2296 82.5811 42.2296C85.8537 42.2296 88.5275 39.7167 88.5275 36.2964C88.5275 32.8622 85.8537 30.3633 82.5811 30.3633ZM82.5811 39.8982C80.7847 39.8982 79.2389 38.4184 79.2389 36.2964C79.2389 34.1605 80.7847 32.6947 82.5811 32.6947C84.3775 32.6947 85.9233 34.1605 85.9233 36.2964C85.9233 38.4184 84.3775 39.8982 82.5811 39.8982ZM67.1512 32.1921V34.705H73.1672C72.9861 36.115 72.5127 37.162 71.8024 37.874C70.9251 38.7535 69.5604 39.7167 67.1651 39.7167C63.4608 39.7167 60.5642 36.7292 60.5642 33.0157C60.5642 29.3023 63.4608 26.3148 67.1651 26.3148C69.1565 26.3148 70.6187 27.0965 71.691 28.1156L73.4596 26.3427C71.9556 24.9048 69.9642 23.8019 67.1512 23.8019C62.0821 23.8019 57.8208 27.9342 57.8208 33.0297C57.8208 38.1113 62.0821 42.2575 67.1512 42.2575C69.8946 42.2575 71.9556 41.3641 73.571 39.6749C75.2282 38.0136 75.7435 35.6682 75.7435 33.7836C75.7435 33.1972 75.7017 32.6528 75.6042 32.206H67.1512V32.1921ZM130.25 34.1465C129.762 32.8203 128.258 30.3633 125.181 30.3633C122.131 30.3633 119.596 32.7645 119.596 36.2964C119.596 39.619 122.103 42.2296 125.473 42.2296C128.189 42.2296 129.762 40.5683 130.403 39.6051L128.383 38.2509C127.715 39.2421 126.796 39.8982 125.473 39.8982C124.15 39.8982 123.203 39.284 122.604 38.0973L130.528 34.8166L130.25 34.1465ZM122.173 36.1289C122.103 33.8394 123.941 32.6667 125.264 32.6667C126.295 32.6667 127.172 33.1833 127.464 33.9232L122.173 36.1289ZM115.739 41.8806H118.343V24.4301H115.739V41.8806ZM111.477 31.6895H111.38C110.795 30.9915 109.681 30.3633 108.261 30.3633C105.294 30.3633 102.579 32.9739 102.579 36.3244C102.579 39.6469 105.294 42.2436 108.261 42.2436C109.667 42.2436 110.795 41.6153 111.38 40.8894H111.463V41.741C111.463 44.0165 110.252 45.2311 108.302 45.2311C106.715 45.2311 105.726 44.0863 105.322 43.1231L103.052 44.0724C103.707 45.6499 105.434 47.5764 108.302 47.5764C111.352 47.5764 113.928 45.7755 113.928 41.392V30.7262H111.463V31.6895H111.477ZM108.483 39.8982C106.687 39.8982 105.183 38.3905 105.183 36.3244C105.183 34.2303 106.687 32.7086 108.483 32.7086C110.252 32.7086 111.645 34.2443 111.645 36.3244C111.658 38.3905 110.266 39.8982 108.483 39.8982ZM142.449 24.4301H136.224V41.8806H138.828V35.2634H142.463C145.345 35.2634 148.172 33.1693 148.172 29.8467C148.172 26.5242 145.317 24.4301 142.449 24.4301ZM142.504 32.8343H138.814V26.8452H142.504C144.454 26.8452 145.554 28.4647 145.554 29.8328C145.554 31.2009 144.454 32.8343 142.504 32.8343ZM158.575 30.3353C156.695 30.3353 154.745 31.173 153.938 33.0018L156.249 33.965C156.737 33.0018 157.656 32.6807 158.617 32.6807C159.967 32.6807 161.332 33.4904 161.346 34.9283V35.1098C160.873 34.8446 159.87 34.4397 158.631 34.4397C156.138 34.4397 153.617 35.8078 153.617 38.3626C153.617 40.694 155.65 42.2017 157.934 42.2017C159.675 42.2017 160.65 41.4199 161.249 40.4985H161.332V41.8527H163.839V35.1656C163.853 32.0664 161.541 30.3353 158.575 30.3353ZM158.255 39.8982C157.405 39.8982 156.221 39.4654 156.221 38.4184C156.221 37.0782 157.698 36.5617 158.979 36.5617C160.121 36.5617 160.664 36.813 161.346 37.148C161.151 38.7535 159.759 39.8982 158.255 39.8982ZM172.988 30.7123L170.008 38.2788H169.924L166.833 30.7123H164.034L168.671 41.2943L166.025 47.1716H168.741L175.885 30.7123H172.988ZM149.593 41.8806H152.197V24.4301H149.593V41.8806Z"/>
</mask>
<path d="M95.5601 30.3633C92.2875 30.3633 89.6137 32.8622 89.6137 36.2964C89.6137 39.7167 92.2875 42.2296 95.5601 42.2296C98.8326 42.2296 101.506 39.7167 101.506 36.2964C101.506 32.8622 98.8326 30.3633 95.5601 30.3633ZM95.5601 39.8982C93.7636 39.8982 92.2178 38.4184 92.2178 36.2964C92.2178 34.1605 93.7636 32.6947 95.5601 32.6947C97.3565 32.6947 98.9023 34.1605 98.9023 36.2964C98.9023 38.4184 97.3426 39.8982 95.5601 39.8982ZM82.5811 30.3633C79.3085 30.3633 76.6347 32.8622 76.6347 36.2964C76.6347 39.7167 79.3085 42.2296 82.5811 42.2296C85.8537 42.2296 88.5275 39.7167 88.5275 36.2964C88.5275 32.8622 85.8537 30.3633 82.5811 30.3633ZM82.5811 39.8982C80.7847 39.8982 79.2389 38.4184 79.2389 36.2964C79.2389 34.1605 80.7847 32.6947 82.5811 32.6947C84.3775 32.6947 85.9233 34.1605 85.9233 36.2964C85.9233 38.4184 84.3775 39.8982 82.5811 39.8982ZM67.1512 32.1921V34.705H73.1672C72.9861 36.115 72.5127 37.162 71.8024 37.874C70.9251 38.7535 69.5604 39.7167 67.1651 39.7167C63.4608 39.7167 60.5642 36.7292 60.5642 33.0157C60.5642 29.3023 63.4608 26.3148 67.1651 26.3148C69.1565 26.3148 70.6187 27.0965 71.691 28.1156L73.4596 26.3427C71.9556 24.9048 69.9642 23.8019 67.1512 23.8019C62.0821 23.8019 57.8208 27.9342 57.8208 33.0297C57.8208 38.1113 62.0821 42.2575 67.1512 42.2575C69.8946 42.2575 71.9556 41.3641 73.571 39.6749C75.2282 38.0136 75.7435 35.6682 75.7435 33.7836C75.7435 33.1972 75.7017 32.6528 75.6042 32.206H67.1512V32.1921ZM130.25 34.1465C129.762 32.8203 128.258 30.3633 125.181 30.3633C122.131 30.3633 119.596 32.7645 119.596 36.2964C119.596 39.619 122.103 42.2296 125.473 42.2296C128.189 42.2296 129.762 40.5683 130.403 39.6051L128.383 38.2509C127.715 39.2421 126.796 39.8982 125.473 39.8982C124.15 39.8982 123.203 39.284 122.604 38.0973L130.528 34.8166L130.25 34.1465ZM122.173 36.1289C122.103 33.8394 123.941 32.6667 125.264 32.6667C126.295 32.6667 127.172 33.1833 127.464 33.9232L122.173 36.1289ZM115.739 41.8806H118.343V24.4301H115.739V41.8806ZM111.477 31.6895H111.38C110.795 30.9915 109.681 30.3633 108.261 30.3633C105.294 30.3633 102.579 32.9739 102.579 36.3244C102.579 39.6469 105.294 42.2436 108.261 42.2436C109.667 42.2436 110.795 41.6153 111.38 40.8894H111.463V41.741C111.463 44.0165 110.252 45.2311 108.302 45.2311C106.715 45.2311 105.726 44.0863 105.322 43.1231L103.052 44.0724C103.707 45.6499 105.434 47.5764 108.302 47.5764C111.352 47.5764 113.928 45.7755 113.928 41.392V30.7262H111.463V31.6895H111.477ZM108.483 39.8982C106.687 39.8982 105.183 38.3905 105.183 36.3244C105.183 34.2303 106.687 32.7086 108.483 32.7086C110.252 32.7086 111.645 34.2443 111.645 36.3244C111.658 38.3905 110.266 39.8982 108.483 39.8982ZM142.449 24.4301H136.224V41.8806H138.828V35.2634H142.463C145.345 35.2634 148.172 33.1693 148.172 29.8467C148.172 26.5242 145.317 24.4301 142.449 24.4301ZM142.504 32.8343H138.814V26.8452H142.504C144.454 26.8452 145.554 28.4647 145.554 29.8328C145.554 31.2009 144.454 32.8343 142.504 32.8343ZM158.575 30.3353C156.695 30.3353 154.745 31.173 153.938 33.0018L156.249 33.965C156.737 33.0018 157.656 32.6807 158.617 32.6807C159.967 32.6807 161.332 33.4904 161.346 34.9283V35.1098C160.873 34.8446 159.87 34.4397 158.631 34.4397C156.138 34.4397 153.617 35.8078 153.617 38.3626C153.617 40.694 155.65 42.2017 157.934 42.2017C159.675 42.2017 160.65 41.4199 161.249 40.4985H161.332V41.8527H163.839V35.1656C163.853 32.0664 161.541 30.3353 158.575 30.3353ZM158.255 39.8982C157.405 39.8982 156.221 39.4654 156.221 38.4184C156.221 37.0782 157.698 36.5617 158.979 36.5617C160.121 36.5617 160.664 36.813 161.346 37.148C161.151 38.7535 159.759 39.8982 158.255 39.8982ZM172.988 30.7123L170.008 38.2788H169.924L166.833 30.7123H164.034L168.671 41.2943L166.025 47.1716H168.741L175.885 30.7123H172.988ZM149.593 41.8806H152.197V24.4301H149.593V41.8806Z" fill="#EDEDED" stroke="#EDEDED" stroke-width="2.81113" mask="url(#path-10-inside-1_305_630)"/>
<path d="M15.0926 43.5963L15.6811 43.2121C15.6884 43.2233 15.6981 43.2327 15.7092 43.2395C15.7204 43.2463 15.7328 43.2505 15.7456 43.2519C15.7584 43.2532 15.7713 43.2517 15.7836 43.2474M15.0926 43.5963L15.7836 43.2474M15.0926 43.5963C15.1569 43.6947 15.2421 43.7775 15.3422 43.8388L15.0926 43.5963ZM15.0926 43.5963L15.6823 43.214C15.4268 42.8199 15.3004 42.3944 15.3004 41.9386V13.2572C15.3029 13.0038 15.3463 12.7525 15.429 12.5132L15.4291 12.5132L15.4316 12.5057C15.4363 12.4914 15.4445 12.4788 15.4552 12.4689C15.4659 12.4591 15.4788 12.4522 15.4925 12.4488C15.5063 12.4455 15.5207 12.4456 15.5343 12.4494C15.548 12.4531 15.5607 12.4603 15.5712 12.4704L15.5712 12.4704L31.223 27.6554C31.2312 27.6634 31.2379 27.6731 31.2425 27.6838C31.2469 27.6941 31.2493 27.7052 31.2496 27.7165M15.0926 43.5963L31.2496 27.7165M15.7836 43.2474C15.7955 43.2433 15.8064 43.2365 15.8157 43.2275C15.816 43.2273 15.8162 43.2271 15.8164 43.2268L31.2218 27.7831C31.222 27.783 31.2221 27.7829 31.2222 27.7827C31.2308 27.774 31.2376 27.7636 31.2424 27.7521C31.247 27.7408 31.2494 27.7288 31.2496 27.7165M15.7836 43.2474L31.2496 27.7165" fill="#EDEDED" stroke="#EDEDED" stroke-width="1.40556"/>
<path d="M33.3386 25.5501L33.3356 25.5471L18.6771 11.3248C18.677 11.3248 18.677 11.3247 18.6769 11.3246C18.6617 11.3098 18.652 11.2897 18.65 11.2679C18.648 11.2468 18.6533 11.2258 18.6648 11.2085C18.6772 11.192 18.6946 11.1806 18.7139 11.1757C18.7317 11.1713 18.7504 11.1726 18.7674 11.1794L37.4133 21.4157C37.4136 21.4158 37.4139 21.416 37.4142 21.4162C37.4257 21.4228 37.4358 21.4319 37.4435 21.4432C37.4514 21.4547 37.4566 21.468 37.4586 21.4821C37.4606 21.4962 37.4593 21.5106 37.4549 21.5241C37.4506 21.5372 37.4434 21.5491 37.434 21.5588C37.4338 21.559 37.4335 21.5592 37.4333 21.5595L33.4553 25.5473L33.4534 25.5492C33.4379 25.5648 33.4173 25.5734 33.3962 25.5735C33.375 25.5737 33.3543 25.5654 33.3386 25.5501Z" fill="#EDEDED" stroke="#EDEDED" stroke-width="1.40556"/>
<path d="M44.906 25.5282L44.9061 25.5283C45.6738 25.9497 46.1274 26.7167 46.1274 27.5956C46.1274 28.4745 45.6738 29.2415 44.9061 29.663C44.9061 29.663 44.9061 29.663 44.9061 29.663L40.2848 32.1997C40.2846 32.1998 40.2844 32.1999 40.2842 32.2C40.2677 32.2088 40.249 32.2122 40.2306 32.2097C40.2123 32.2072 40.195 32.1991 40.1812 32.186C40.181 32.1859 40.1808 32.1857 40.1806 32.1855L35.6024 27.7428C35.6024 27.7428 35.6024 27.7428 35.6024 27.7428C35.5942 27.7348 35.5876 27.7252 35.583 27.7144C35.5784 27.7037 35.5759 27.692 35.5758 27.6802C35.5757 27.6684 35.578 27.6567 35.5824 27.6458L34.9365 27.3827L35.5824 27.6458C35.5868 27.6351 35.5932 27.6254 35.6012 27.6173C35.6013 27.6172 35.6013 27.6172 35.6014 27.6171L40.1939 23.0132C40.1941 23.0131 40.1942 23.0129 40.1944 23.0127C40.2082 22.9992 40.2257 22.9907 40.2442 22.988C40.2628 22.9854 40.2817 22.9887 40.2984 22.9976C40.2987 22.9977 40.2989 22.9978 40.2991 22.9979L44.906 25.5282Z" fill="#EDEDED" stroke="#EDEDED" stroke-width="1.40556"/>
<path d="M33.4891 29.8526C33.4891 29.8526 33.4892 29.8527 33.4892 29.8527L37.4047 33.65L37.4064 33.6516C37.416 33.6608 37.4235 33.6724 37.4279 33.6853C37.4325 33.6982 37.4339 33.7121 37.432 33.7257C37.4302 33.7393 37.4252 33.7523 37.4176 33.7634C37.41 33.7745 37.3999 33.7835 37.3884 33.7898L37.3871 33.7905L20.3555 43.1397L20.3474 43.1441L20.3395 43.1488C20.3222 43.1589 20.302 43.1621 20.2827 43.1582L20.143 43.847L20.2827 43.1582C20.2634 43.1543 20.2458 43.1433 20.2334 43.1269C20.2211 43.1103 20.215 43.0896 20.2167 43.0685C20.2185 43.0474 20.2279 43.0281 20.2426 43.014L20.2488 43.0081L20.2549 43.002L33.3707 29.8537C33.3866 29.8377 33.4079 29.8289 33.4297 29.8288C33.4515 29.8286 33.4729 29.837 33.4891 29.8526Z" fill="#EDEDED" stroke="#EDEDED" stroke-width="1.40556"/>
</svg>
