<svg width="474" height="154" viewBox="0 0 474 154" fill="none" xmlns="http://www.w3.org/2000/svg">
<path d="M474 0H0V84.3917H474V0Z" fill="#FF267E"/>
<path d="M153.735 40.5433H125.525V32.354H159.651V21.049H109.168V63.1533H125.525V51.8483H153.735V40.5433Z" fill="#000055"/>
<path d="M243.396 49.0904L228.428 21.049H209.649L233.965 63.1533H252.596L276.89 21.049H258.385L243.396 49.0904Z" fill="#000055"/>
<path d="M329.328 41.7643C333.069 40.3138 335.574 36.7244 335.644 32.7119C335.644 25.8067 329.812 21.049 318.339 21.049H281.308V63.1533H319.202C331.518 63.1533 336.991 58.2902 336.991 51.2378C336.907 47.301 334.528 43.7432 329.328 41.7643ZM297.245 31.2382H315.497C315.705 31.1961 315.918 31.175 316.131 31.175C317.899 31.175 319.352 32.6298 319.352 34.396C319.352 36.1623 317.899 37.617 316.131 37.617C315.918 37.617 315.705 37.596 315.497 37.5539H297.245V31.2382ZM316.823 53.1325H297.245V46.8168H316.823C317.032 46.7747 317.244 46.7537 317.457 46.7537C319.225 46.7537 320.678 48.2084 320.678 49.9746C320.678 51.7409 319.225 53.1956 317.457 53.1956C317.244 53.1956 317.032 53.1746 316.823 53.1325Z" fill="#000055"/>
<path d="M361.03 46.6694H389.197V37.5328H361.03V32.354H392.166V21.049H344.672V63.1533H392.902V51.8483H361.03V46.6694Z" fill="#000055"/>
<path d="M399.661 21.049V32.354H418.019V63.1533H434.566V32.354H452.902V21.049H399.661Z" fill="#000055"/>
<path d="M178.657 21.049L154.363 63.1533H171.752L175.036 56.9429H201.015L204.299 63.1533H222.404L198.088 21.049H178.657ZM180.763 46.0168L187.941 32.4592L195.12 46.0168H180.763Z" fill="#000055"/>
<path d="M21.7585 37.5521L36.2634 63.1516H54.8946L40.3686 37.5521H21.7585Z" fill="#000055"/>
<path d="M69.3999 37.5521L54.895 63.1516H73.5051L88.01 37.5521H69.3999Z" fill="#000055"/>
<path d="M54.8941 12.0156L40.3682 37.5519H69.399L54.8941 12.0156Z" fill="#000055"/>
<path d="M0.702782 153.149V84.2222H207.682V153.149H0.702782Z" fill="#000055" stroke="#FF267E" stroke-width="1.40556"/>
<path d="M46.4697 123.733C46.2761 125.154 45.8888 126.421 45.2304 127.611C44.5719 128.801 43.6812 129.799 42.6355 130.643C41.5898 131.526 40.3504 132.179 38.9561 132.639C37.5231 133.138 35.974 133.369 34.3086 133.369C32.2172 133.369 30.3581 133.023 28.7315 132.332C27.1048 131.68 25.7493 130.72 24.6261 129.415C23.4643 128.148 22.6509 126.651 22.07 124.847C21.489 123.042 21.1792 121.046 21.1792 118.82C21.1792 116.632 21.489 114.636 22.1087 112.87C22.7284 111.104 23.6192 109.607 24.7811 108.378C25.9042 107.15 27.2985 106.19 28.9639 105.538C30.5905 104.885 32.4108 104.54 34.4635 104.54C36.1289 104.54 37.6393 104.77 38.9949 105.192C40.3504 105.653 41.551 106.305 42.5967 107.112C43.6424 107.956 44.4945 108.954 45.1529 110.106C45.8113 111.296 46.2373 112.601 46.4697 114.06H41.2025C40.9314 113.1 40.5828 112.255 40.1568 111.603C39.692 110.95 39.1885 110.451 38.6076 110.029C37.9879 109.607 37.3682 109.338 36.6711 109.146C35.9352 108.993 35.1994 108.916 34.4248 108.916C33.3791 108.916 32.3721 109.108 31.4813 109.53C30.5518 109.991 29.7385 110.605 29.0801 111.449C28.4217 112.294 27.8794 113.33 27.4921 114.559C27.1048 115.787 26.9112 117.207 26.9112 118.82C26.9112 120.47 27.1048 121.968 27.4921 123.196C27.8794 124.463 28.4217 125.538 29.0801 126.382C29.7385 127.265 30.5131 127.918 31.4038 128.34C32.2946 128.762 33.2241 128.993 34.2311 128.993C35.0444 128.993 35.8578 128.916 36.5936 128.685C37.3295 128.493 38.0266 128.186 38.6463 127.764C39.2272 127.38 39.7695 126.804 40.1955 126.152C40.6215 125.499 40.9701 124.693 41.2025 123.733H46.4697Z" fill="#FF267E"/>
<path d="M61.8059 105.031H67.383L77.8787 132.863H71.8756L69.9004 127.22H58.9786L57.0034 132.863H51.3489L61.8059 105.031ZM60.5666 122.728H68.3125L64.4395 111.749L60.5666 122.728Z" fill="#FF267E"/>
<path d="M91.7433 120.662C90.6201 120.432 89.5357 120.125 88.5287 119.703C87.483 119.28 86.5922 118.743 85.8563 118.09C85.0818 117.438 84.4621 116.67 84.036 115.749C83.5713 114.866 83.3389 113.791 83.3389 112.601C83.3389 111.181 83.6875 109.991 84.3846 108.954C85.043 107.956 85.9338 107.112 87.0182 106.459C88.0639 105.806 89.2646 105.346 90.6201 105C91.9369 104.693 93.2537 104.54 94.5318 104.54C95.9648 104.54 97.3591 104.731 98.6759 105.154C99.954 105.576 101.116 106.152 102.123 106.881C103.13 107.649 103.943 108.57 104.563 109.645C105.144 110.72 105.492 111.91 105.57 113.254H100.225C100.109 112.447 99.8765 111.756 99.4892 111.181C99.1019 110.643 98.6372 110.183 98.0949 109.837C97.5527 109.53 96.9331 109.261 96.2746 109.108C95.6162 108.993 94.9578 108.916 94.2994 108.916C93.641 108.916 93.0213 108.993 92.3629 109.108C91.7045 109.223 91.1236 109.415 90.6201 109.684C90.1166 109.991 89.6906 110.336 89.3808 110.758C89.0322 111.219 88.8773 111.756 88.8773 112.371C88.8773 113.33 89.2646 114.098 90.0004 114.674C90.7363 115.25 91.6658 115.634 92.789 115.826L96.4683 116.478C97.5915 116.67 98.7533 116.977 99.9152 117.323C101.038 117.668 102.084 118.167 103.014 118.781C103.904 119.434 104.64 120.24 105.221 121.2C105.802 122.198 106.073 123.426 106.073 124.847C106.073 126.267 105.763 127.534 105.105 128.57C104.447 129.645 103.556 130.528 102.51 131.257C101.426 131.987 100.186 132.486 98.8695 132.831C97.514 133.215 96.1197 133.369 94.6867 133.369C92.9439 133.369 91.3947 133.138 90.0004 132.678C88.5674 132.255 87.3668 131.603 86.3211 130.758C85.2754 129.952 84.4621 128.954 83.8424 127.726C83.2227 126.536 82.8354 125.192 82.7192 123.695H88.0639C88.2189 124.731 88.49 125.576 88.916 126.229C89.342 126.92 89.8455 127.457 90.4652 127.879C91.0461 128.302 91.7433 128.57 92.5179 128.724C93.2537 128.916 94.067 128.993 94.8804 128.993C95.5 128.993 96.1585 128.916 96.8169 128.801C97.4753 128.685 98.0562 128.455 98.6372 128.148C99.1794 127.879 99.6441 127.495 99.9927 126.958C100.341 126.459 100.496 125.845 100.496 125.115C100.496 124.54 100.38 124.002 100.109 123.58C99.8378 123.158 99.4892 122.812 99.0245 122.505C98.5597 122.236 98.0175 121.968 97.3978 121.776C96.7394 121.584 96.0423 121.43 95.3064 121.315L91.7433 120.662Z" fill="#FF267E"/>
<path d="M118.897 105.031H113.359V132.863H118.897V105.031Z" fill="#FF267E"/>
<path d="M144.259 132.863L133.028 111.634V132.863H127.799V105.031H135.003L146.234 126.26V105.031H151.463V132.863H144.259Z" fill="#FF267E"/>
<path d="M164.982 118.935C164.982 120.586 165.214 122.006 165.64 123.273C166.066 124.54 166.608 125.576 167.344 126.421C168.08 127.265 168.932 127.918 169.9 128.34C170.868 128.762 171.914 128.993 172.999 128.993C174.083 128.993 175.129 128.762 176.097 128.34C177.065 127.918 177.917 127.265 178.653 126.421C179.389 125.576 179.97 124.54 180.396 123.273C180.783 122.006 181.016 120.586 181.016 118.935C181.016 117.284 180.783 115.864 180.396 114.597C179.97 113.369 179.389 112.332 178.653 111.488C177.917 110.643 177.065 109.991 176.097 109.568C175.129 109.146 174.083 108.916 172.999 108.916C171.914 108.916 170.868 109.146 169.9 109.568C168.932 109.991 168.08 110.643 167.344 111.488C166.608 112.332 166.066 113.369 165.64 114.597C165.214 115.864 164.982 117.284 164.982 118.935ZM186.748 118.935C186.748 121.085 186.438 123.042 185.779 124.808C185.121 126.612 184.23 128.11 183.03 129.376C181.79 130.682 180.357 131.641 178.692 132.332C176.988 133.023 175.09 133.369 172.999 133.369C170.907 133.369 169.009 133.023 167.344 132.332C165.64 131.641 164.207 130.682 163.006 129.376C161.767 128.11 160.876 126.612 160.218 124.808C159.559 123.042 159.25 121.085 159.25 118.935C159.25 116.785 159.559 114.827 160.218 113.023C160.876 111.257 161.767 109.76 163.006 108.493C164.207 107.227 165.64 106.267 167.344 105.576C169.009 104.885 170.907 104.54 172.999 104.54C175.09 104.54 176.988 104.885 178.692 105.576C180.357 106.267 181.79 107.227 183.03 108.493C184.23 109.76 185.121 111.257 185.779 113.023C186.438 114.827 186.748 116.785 186.748 118.935Z" fill="#FF267E"/>
</svg>
