<svg width="60" height="35" viewBox="0 0 60 35" fill="none" xmlns="http://www.w3.org/2000/svg">
<g opacity="0.8">
<path fill-rule="evenodd" clip-rule="evenodd" d="M18.031 35C21.9603 35 25.5877 33.7048 28.5087 31.5182C24.8034 27.9942 22.4936 23.017 22.4936 17.5002C22.4936 11.983 24.8034 7.00585 28.5087 3.48224C25.5877 1.29521 21.9603 0 18.031 0C8.3659 0 0.530762 7.83514 0.530762 17.5002C0.530762 27.1649 8.3659 35 18.031 35ZM41.8359 0C37.9062 0 34.2792 1.29521 31.3582 3.48224C35.063 7.00585 37.3728 11.983 37.3728 17.5002C37.3728 23.017 35.063 27.9942 31.3582 31.5182C34.2792 33.7048 37.9062 35 41.8359 35C51.5006 35 59.3357 27.1649 59.3357 17.5002C59.3357 7.83514 51.5006 0 41.8359 0ZM35.5308 17.5002C35.5308 12.4318 33.3761 7.86662 29.9335 4.67086C26.4904 7.86662 24.3357 12.4318 24.3357 17.5002C24.3357 22.5682 26.4904 27.1334 29.9335 30.3291C33.3761 27.1334 35.5308 22.5682 35.5308 17.5002Z" fill="white"/>
</g>
</svg>
