<svg width="54" height="35" viewBox="0 0 54 35" fill="none" xmlns="http://www.w3.org/2000/svg">
<g opacity="0.8">
<path d="M49.5833 4.375H4.375V7.29167H49.5833V4.375Z" fill="white"/>
<path d="M25.4091 11.6546L22.8888 23.3746H19.8404L22.3612 11.6546H25.4091ZM38.2337 19.2224L39.8381 14.8213L40.7612 19.2224H38.2337ZM41.6361 23.3746H44.4549L41.9924 11.6546H39.3921C38.8057 11.6546 38.3123 11.9928 38.0936 12.514L33.5194 23.3746H36.7208L37.3562 21.6245H41.2666L41.6361 23.3746ZM33.6784 19.5484C33.6918 16.4556 29.3796 16.284 29.4085 14.9023C29.418 14.4821 29.8203 14.0345 30.701 13.9203C31.1376 13.8643 32.342 13.8192 33.7073 14.4449L34.2415 11.9584C33.508 11.6948 32.5642 11.4407 31.3901 11.4407C28.3766 11.4407 26.2567 13.0329 26.2396 15.3145C26.2202 17.002 27.7544 17.9428 28.9072 18.5044C30.0959 19.0786 30.4941 19.4478 30.4888 19.9607C30.4807 20.747 29.5403 21.0953 28.6656 21.1084C27.1319 21.1323 26.2431 20.6962 25.5346 20.3676L24.9813 22.9367C25.6949 23.2616 27.0096 23.5441 28.3703 23.5587C31.5739 23.5587 33.669 21.9852 33.6784 19.5484ZM21.0534 11.6546L16.1143 23.3746H12.8925L10.4617 14.0213C10.3144 13.446 10.186 13.2347 9.73817 12.9917C9.00475 12.5956 7.79477 12.2254 6.73047 11.9951L6.80261 11.6546H11.9898C12.6504 11.6546 13.2449 12.0923 13.3961 12.849L14.68 19.6316L17.851 11.6546H21.0534Z" fill="white"/>
<path d="M49.5833 28.0474H4.375V30.6251H49.5833V28.0474Z" fill="white"/>
<path fill-rule="evenodd" clip-rule="evenodd" d="M50.9295 2.91667H2.91667V32.0833H50.9295V2.91667ZM0 0V35H53.8461V0H0Z" fill="white"/>
</g>
</svg>
